# xmcd
#
# Track frame offsets: 
#        150
#        26865
#        49142
#        69566
#        90185
#        109710
#        132244
#        151125
#        171246
#        189402
#        208551
#        220344
#        244592
#        269457
#        287080
#        317246
#        327890
#
# Disc length: 4619 seconds
#
# Revision: 0
# Processed by: cddbd v1.5.2PL0 Copyright (c) Steve Scherf et al.
# Submitted via: ExactAudioCopy v0.95b3
#
DISCID=f5120911
DTITLE=Janis Joplin  - Janis - Disc 2  FLAC
DYEAR=1900
DGENRE=
TTITLE0=Combination Of The Two
TTITLE1=I Need A Man To Love
TTITLE2=Piece Of My Heart
TTITLE3=Turtle Blues
TTITLE4=Oh, Sweet Mary
TTITLE5=Catch Me Daddy
TTITLE6=Summertime
TTITLE7=Kozmic Blues
TTITLE8=Try (Just A Little Bit Harder)
TTITLE9=One Good Man
TTITLE10=Dear Landlord
TTITLE11=To Love Somebody
TTITLE12=As Good As You've Been In This World
TTITLE13=Little Girl Blue
TTITLE14=Work Me, Lord
TTITLE15=Raise Your Hand
TTITLE16=May Be
EXTD=
EXTT0=
EXTT1=
EXTT2=
EXTT3=
EXTT4=
EXTT5=
EXTT6=
EXTT7=
EXTT8=
EXTT9=
EXTT10=
EXTT11=
EXTT12=
EXTT13=
EXTT14=
EXTT15=
EXTT16=
PLAYORDER=
